<?xml version="1.0"?>
<svg xmlns="http://www.w3.org/2000/svg" viewBox="0 0 32 32">
    <path style="text-indent:0;text-align:start;line-height:normal;text-transform:none;block-progression:tb;-inkscape-font-specification:Bitstream Vera Sans" d="M 0 1.625 L 0 3 L 0 29 L 0 30.375 L 1.3125 29.9375 L 7.125 28 L 24.875 28 L 30.6875 29.9375 L 32 30.375 L 32 29 L 32 3 L 32 1.625 L 30.6875 2.0625 L 24.875 4 L 7.125 4 L 1.3125 2.0625 L 0 1.625 z M 2 4.375 L 6 5.71875 L 6 11.8125 L 2 11.125 L 2 4.375 z M 30 4.375 L 30 11.125 L 26 11.8125 L 26 5.71875 L 30 4.375 z M 8 6 L 24 6 L 24 26 L 8 26 L 8 6 z M 2 13.1875 L 6 13.875 L 6 26.28125 L 2 27.625 L 2 13.1875 z M 30 13.1875 L 30 27.625 L 26 26.28125 L 26 13.875 L 30 13.1875 z" overflow="visible" font-family="Bitstream Vera Sans"/>
</svg>
